HIERARCHY
ROOT Root
{
  OFFSET 9.34113 11.8871 -1.86773
  CHANNELS 6 Xposition Yposition Zposition Zrotation Xrotation Yrotation
  JOINT Spine
  {
    OFFSET 5.3114 0 0
    CHANNELS 3 Zrotation Xrotation Yrotation
    JOINT Spine1
    {
      OFFSET 2.79004 0 0
      CHANNELS 3 Zrotation Xrotation Yrotation
      JOINT Neck
      {
        OFFSET 1.43377 0 0
        CHANNELS 3 Zrotation Xrotation Yrotation
        JOINT Head
        {
          OFFSET 1.86043 0 0
          CHANNELS 3 Zrotation Xrotation Yrotation
          End Site
          {
            OFFSET 0 0 0
          }
        }
      }
      JOINT LeftArm
      {
        OFFSET 0.0387506 0 2.55754
        CHANNELS 3 Zrotation Xrotation Yrotation
        JOINT LeftForeArm
        {
          OFFSET 4.24845 0 0
          CHANNELS 3 Zrotation Xrotation Yrotation
          JOINT LeftHand
          {
            OFFSET 4.01008 0 0
            CHANNELS 3 Zrotation Xrotation Yrotation
            End Site
            {
              OFFSET 0 0 0
            }
          }
        }
      }
      JOINT RightArm
      {
        OFFSET 0.0387506 0 -2.55754
        CHANNELS 3 Zrotation Xrotation Yrotation
        JOINT RightForeArm
        {
          OFFSET -4.24845 0 0
          CHANNELS 3 Zrotation Xrotation Yrotation
          JOINT RightHand
          {
            OFFSET -4.01009 0 0
            CHANNELS 3 Zrotation Xrotation Yrotation
            End Site
            {
              OFFSET 0 0 0
            }
          }
        }
      }
    }
  }
  JOINT LeftUpLeg
  {
    OFFSET -1.23318 0 2.05692
    CHANNELS 3 Zrotation Xrotation Yrotation
    JOINT LeftLeg
    {
      OFFSET 5.46397 0 0
      CHANNELS 3 Zrotation Xrotation Yrotation
      JOINT LeftFoot
      {
        OFFSET 4.68898 0 0
        CHANNELS 3 Zrotation Xrotation Yrotation
        End Site
        {
          OFFSET 0 0 0
        }
      }
    }
  }
  JOINT RightUpLeg
  {
    OFFSET -1.24454 0 -2.05007
    CHANNELS 3 Zrotation Xrotation Yrotation
    JOINT RightLeg
    {
      OFFSET -5.46397 0 0
      CHANNELS 3 Zrotation Xrotation Yrotation
      JOINT RightFoot
      {
        OFFSET -4.68901 0 0
        CHANNELS 3 Zrotation Xrotation Yrotation
        End Site
        {
          OFFSET 0 0 0
        }
      }
    }
  }
}
MOTION
Frames:	23
Frame Time:	0.00833333
9.34113 11.8871 -1.86773 -0 90 90 9.69808e-018 1.34041e-020 0.158382 1.41245e-030 7.06225e-031 2.48481e-017 -7.30747e-017 7.61111e-019 -1.19349 3.40995e-017 1.65719e-019 0.556895 -2.12238e-008 -1.53545e-005 -90.1584 -2.50273e-005 -2.47192e-012 6.55612e-006 1.52588e-005 -6.98387e-015 174.455 180 -4.60993e-005 -89.8417 -5.49628e-005 -2.25992e-011 3.612e-005 1.52588e-005 6.98387e-015 174.455 -3.94845 -0.248811 -175.995 -8.56416 0.175934 -0.869988 4.60971 -0.0775208 176.869 177.962 -0.126786 -176.036 -4.42205 0.0845906 -0.877238 2.38054 -0.0336168 176.598 
9.2865 11.8852 -1.99363 91.333 64.944 2.19675 -1.41809 0.0116271 -0.214021 1.69705 0.0381618 0.82884 -4.61818 0.094001 -1.91435 7.69139 0.0675141 0.722764 7.20577 -2.87688 -111.715 7.48361 0.387888 4.28647 -0.319545 -3.64638 174.447 -179.415 -0.307024 -113.416 8.65755 0.634466 4.90338 0.417926 4.76306 174.442 -11.0278 -1.75586 -177.292 -18.63 -0.198143 -1.06086 10.5848 -0.900192 177.369 170.071 -1.98861 -177.651 -15.8491 -0.234925 -1.09349 3.85678 4.56872 176.115 
9.22917 11.8835 -2.12575 95.3151 38.4587 2.44073 -2.91593 0.0297307 -0.609931 3.49054 0.0801997 1.70634 -9.49397 0.192424 -2.67779 15.8199 0.138066 0.902913 11.4722 -11.1547 -133.743 15.3298 0.790296 8.81729 -0.660761 -7.50953 174.415 -179.203 -1.19886 -138.318 17.7176 1.29533 10.1023 0.864581 9.78633 174.387 -18.5709 -3.35286 -178.662 -29.2439 -0.593002 -1.26198 16.9133 -1.76527 177.895 161.619 -3.9674 -179.36 -27.9238 -0.572502 -1.32194 5.50024 9.42128 175.572 
9.17722 11.8815 -2.24541 99.2284 14.8623 2.88711 -4.25382 0.0348767 -0.958826 5.08784 0.11439 2.48652 -13.8474 0.281677 -3.35612 23.073 0.202524 1.05451 10.204 -20.9774 -153.491 22.2784 1.13766 12.8617 -0.968747 -10.9387 174.364 -179.624 -2.217 -160.556 25.6508 1.84776 14.717 1.2765 14.2882 174.298 -25.3915 -4.77461 -179.89 -38.7692 -0.94614 -1.44279 22.578 -2.54712 178.369 153.975 -5.71598 179.111 -38.7104 -0.873795 -1.52615 7.05651 13.7553 175.045 
9.13871 11.8788 -2.3339 102.261 -1.53959 3.41759 -5.1925 0.00763893 -1.19018 6.19729 0.129061 3.02341 -16.9 0.348273 -3.82166 28.1385 0.251762 1.13471 5.61188 -27.7106 -168.38 27.1036 1.37207 15.6877 -1.18352 -13.2835 174.317 179.68 -2.87374 -176.135 30.9985 2.18388 17.8639 1.57953 17.4876 174.212 -30.2611 -5.75717 179.239 -45.5676 -1.1951 -1.57264 26.5531 -3.11996 178.714 148.577 -6.89086 178.044 -46.2718 -1.0845 -1.66967 8.21665 16.8068 174.641 
9.11926 11.875 -2.3789 103.573 -7.89425 3.72721 -5.57587 -0.072357 -1.26264 6.62617 0.114283 3.21916 -18.1358 0.386384 -3.98672 30.1437 0.28583 1.11173 2.88867 -29.9209 -174.773 29.011 1.46596 16.8084 -1.26044 -14.1111 174.298 179.283 -3.09894 177.612 32.8155 2.25198 18.9471 1.71403 18.8722 174.168 -32.3205 -6.12966 178.874 -48.5149 -1.29805 -1.63002 28.1367 -3.38536 178.87 146.415 -7.26744 177.637 -49.3253 -1.16842 -1.72842 8.73517 18.0704 174.459 
9.11342 11.8704 -2.39282 103.48 -7.08262 3.74542 -5.56219 -0.189689 -1.22135 6.56895 0.0785845 3.17127 -18.0743 0.40405 -3.93727 29.9629 0.308774 1.01519 3.23864 -29.4504 -174.326 28.8463 1.46445 16.7105 -1.23676 -13.855 174.303 179.256 -3.10139 178.028 32.129 2.13778 18.5555 1.72262 18.9603 174.165 -32.3582 -6.06706 178.873 -48.7124 -1.29674 -1.63565 28.0092 -3.43183 178.892 146.587 -7.07564 177.704 -49.1578 -1.16179 -1.7266 8.77223 18.0591 174.45 
9.1126 11.8657 -2.39409 102.812 -3.40648 3.64078 -5.38386 -0.310081 -1.12549 6.31495 0.0380119 3.02675 -17.4904 0.408633 -3.80611 28.9048 0.317457 0.894411 4.77897 -27.944 -171.16 27.8483 1.42399 16.1225 -1.17282 -13.1645 174.319 179.391 -3.02401 -178.858 30.4503 1.95255 17.5818 1.67923 18.5173 174.18 -31.6097 -5.82562 179.014 -47.8598 -1.25408 -1.62228 27.2178 -3.41407 178.873 147.705 -6.65679 177.956 -47.6864 -1.11901 -1.70008 8.61429 17.5376 174.51 
9.10823 11.8613 -2.40114 102.425 -1.1661 3.58831 -5.27387 -0.399248 -1.03424 6.15385 0.00863278 2.93263 -17.1586 0.407483 -3.72606 28.2779 0.308746 0.798704 5.59052 -26.9829 -169.419 27.2549 1.40063 15.773 -1.12869 -12.6885 174.329 179.468 -3.00126 -177.017 29.2976 1.81042 16.9182 1.65884 18.3083 174.187 -31.3115 -5.66153 179.078 -47.6567 -1.23296 -1.62265 26.8107 -3.48679 178.906 148.385 -6.35234 178.104 -46.828 -1.09449 -1.68475 8.55117 17.2705 174.536 
9.09922 11.8574 -2.41693 102.446 -1.0681 3.59935 -5.26772 -0.457542 -0.955671 6.13026 -0.00858374 2.91459 -17.209 0.400298 -3.71657 28.2974 0.277584 0.727339 5.52924 -26.891 -169.713 27.2737 1.40417 15.7835 -1.11304 -12.5259 174.333 179.459 -3.05352 -177.112 28.9327 1.73373 16.7146 1.67386 18.4625 174.183 -31.6829 -5.62793 179.02 -48.4175 -1.24407 -1.64331 26.9817 -3.69022 179.014 148.4 -6.21585 178.105 -46.9027 -1.09737 -1.68656 8.63655 17.3846 174.509 
9.08974 11.8537 -2.43229 102.46 -0.965326 3.5973 -5.25002 -0.500083 -0.860776 6.10059 -0.0211015 2.89873 -17.2537 0.38391 -3.71213 28.3098 0.227049 0.658644 5.44282 -26.8362 -170.022 27.2848 1.4063 15.7898 -1.09635 -12.3551 174.336 179.468 -3.11095 -177.157 28.5931 1.66405 16.5245 1.68699 18.5969 174.178 -32.1018 -5.5932 178.953 -49.2819 -1.25588 -1.66751 27.201 -3.9422 179.148 148.44 -6.07768 178.101 -46.9517 -1.10041 -1.68759 8.72437 17.4978 174.481 
9.0791 11.8502 -2.44742 102.464 -0.879621 3.58543 -5.22801 -0.514723 -0.753183 6.07246 -0.0254834 2.88268 -17.2915 0.361376 -3.71811 28.3209 0.166207 0.610513 5.34405 -26.8101 -170.337 27.288 1.40691 15.7916 -1.08064 -12.1953 174.339 179.495 -3.19605 -177.152 28.2726 1.59953 16.3448 1.69785 18.708 174.175 -32.5389 -5.5366 178.892 -50.188 -1.26801 -1.69311 27.4321 -4.21381 179.293 148.506 -5.94494 178.085 -46.9741 -1.1035 -1.68788 8.80155 17.6113 174.455 
9.0666 11.8469 -2.46257 102.458 -0.832818 3.56699 -5.20906 -0.489313 -0.636514 6.05355 -0.0182923 2.86409 -17.3206 0.335752 -3.73988 28.3364 0.104124 0.600839 5.24586 -26.8044 -170.65 27.2829 1.40595 15.7887 -1.06799 -12.0655 174.342 179.538 -3.33126 -177.098 27.9652 1.53832 16.1724 1.70608 18.7922 174.172 -32.9653 -5.43736 178.85 -51.0741 -1.28006 -1.71794 27.6376 -4.47615 179.433 148.599 -5.82477 178.048 -46.9689 -1.10648 -1.68748 8.85498 17.7263 174.436 
9.05191 11.844 -2.4777 102.431 -0.831635 3.53428 -5.19075 -0.412606 -0.496935 6.04724 0.00377877 2.84087 -17.3325 0.305521 -3.79244 28.3572 0.0379337 0.648344 5.14838 -26.8265 -170.964 27.2627 1.40214 15.7773 -1.05871 -11.9688 174.344 179.61 -3.5247 -176.984 27.6738 1.48097 16.0088 1.70981 18.8308 174.171 -33.3632 -5.28654 178.837 -51.9501 -1.29305 -1.74208 27.8403 -4.7425 179.578 148.735 -5.71631 177.981 -46.9255 -1.10948 -1.68612 8.8831 17.8459 174.424 
9.03546 11.8414 -2.49273 102.386 -0.86413 3.48842 -5.1712 -0.293744 -0.337454 6.04902 0.0381011 2.81477 -17.3309 0.269836 -3.8684 28.3806 -0.0354364 0.738833 5.04491 -26.8775 -171.282 27.2299 1.39593 15.7589 -1.05177 -11.8957 174.345 179.706 -3.7636 -176.814 27.4001 1.42817 15.8549 1.70981 18.8316 174.171 -33.7518 -5.09636 178.844 -52.8401 -1.30682 -1.76646 28.0496 -5.02128 179.732 148.908 -5.6167 177.89 -46.848 -1.11252 -1.68386 8.89221 17.9686 174.415 
9.01764 11.839 -2.50777 102.345 -0.924153 3.44588 -5.15837 -0.151168 -0.186951 6.0547 0.0792087 2.78917 -17.3325 0.232751 -3.93955 28.4075 -0.107223 0.840831 4.93861 -26.9404 -171.596 27.1977 1.38984 15.7407 -1.04718 -11.8463 174.346 179.809 -4.03909 -176.609 27.1368 1.3782 15.7065 1.70968 18.8311 174.171 -34.1563 -4.87775 178.856 -53.7036 -1.31917 -1.79021 28.2066 -5.27627 179.869 149.087 -5.52995 177.793 -46.7568 -1.11532 -1.68127 8.88091 18.0884 174.414 
8.99888 11.837 -2.52294 102.325 -1.00555 3.42313 -5.15976 -0.00332212 -0.0743052 6.06005 0.121634 2.76744 -17.3543 0.198318 -3.97769 28.4384 -0.168665 0.922859 4.83311 -26.9979 -171.895 27.1794 1.38635 15.7304 -1.04494 -11.8206 174.347 179.897 -4.3423 -176.393 26.8761 1.32931 15.5595 1.71304 18.8658 174.17 -34.6023 -4.64166 178.858 -54.5002 -1.32792 -1.81246 28.252 -5.47128 179.967 149.241 -5.4602 177.706 -46.6724 -1.11761 -1.67892 8.84775 18.1996 174.423 
8.97906 11.8353 -2.53836 102.335 -1.11435 3.4283 -5.18357 0.156278 -0.0140159 6.06742 0.167259 2.75198 -17.4059 0.165706 -3.97404 28.4845 -0.219525 0.982925 4.72114 -27.0416 -172.181 27.1717 1.38486 15.7261 -1.04489 -11.8169 174.346 179.969 -4.67854 -176.165 26.6121 1.2805 15.4105 1.72069 18.9438 174.168 -35.0991 -4.37456 178.849 -55.2312 -1.33232 -1.83343 28.1608 -5.60536 -179.98 149.359 -5.41654 177.635 -46.5957 -1.11915 -1.67686 8.79641 18.3019 174.441 
8.95804 11.8341 -2.55394 102.364 -1.25128 3.45138 -5.22339 0.333665 0.0115872 6.07789 0.217885 2.74048 -17.4765 0.133385 -3.94408 28.5418 -0.263776 1.03568 4.6036 -27.0822 -172.457 27.1699 1.38446 15.7251 -1.04708 -11.8359 174.346 -179.964 -5.04983 -175.915 26.3501 1.23287 15.2625 1.73078 19.0463 174.164 -35.6324 -4.07609 178.836 -55.9141 -1.33361 -1.85343 27.967 -5.69491 -179.958 149.459 -5.39413 177.57 -46.5174 -1.12014 -1.67482 8.7262 18.398 174.468 
8.93615 11.833 -2.56947 102.403 -1.40219 3.48164 -5.26457 0.509717 0.0218823 6.08535 0.267927 2.72929 -17.5523 0.104358 -3.8959 28.5877 -0.29898 1.07462 4.49651 -27.1307 -172.72 27.1846 1.38722 15.7334 -1.05185 -11.8807 174.345 -179.904 -5.44248 -175.649 26.0998 1.18791 15.1209 1.74289 19.1689 174.16 -36.1909 -3.77696 178.816 -56.5327 -1.3325 -1.87172 27.6988 -5.72985 -179.968 149.55 -5.37607 177.507 -46.4423 -1.12096 -1.67288 8.6292 18.4863 174.505 
8.91372 11.8319 -2.58476 102.443 -1.55296 3.50835 -5.29266 0.66531 0.036248 6.08367 0.311802 2.71476 -17.6197 0.0816275 -3.8376 28.5996 -0.3227 1.09324 4.4157 -27.1984 -172.966 27.2266 1.39524 15.757 -1.05954 -11.9548 174.343 -179.854 -5.84286 -175.371 25.8709 1.14712 14.9915 1.75663 19.3078 174.155 -36.7633 -3.50786 178.785 -57.0707 -1.32972 -1.88753 27.3846 -5.70007 179.992 149.641 -5.34547 177.443 -46.3755 -1.12198 -1.67115 8.49745 18.5654 174.557 
8.89105 11.8307 -2.59966 102.483 -1.6964 3.52872 -5.30395 0.790153 0.05913 6.06772 0.346676 2.70033 -17.6798 0.0681356 -3.76988 28.5776 -0.331031 1.08446 4.36597 -27.2902 -173.2 27.3075 1.41075 15.8026 -1.07184 -12.0747 174.34 -179.814 -6.25274 -175.073 25.66 1.1101 14.8721 1.77285 19.4713 174.15 -37.3591 -3.27715 178.741 -57.5287 -1.3246 -1.90081 27.0009 -5.58734 179.91 149.728 -5.28463 177.383 -46.3231 -1.12318 -1.66979 8.29818 18.635 174.633 
8.86788 11.8296 -2.6143 102.529 -1.84118 3.54846 -5.30604 0.896178 0.0804337 6.04191 0.375977 2.68648 -17.7382 0.0615674 -3.68889 28.5315 -0.326359 1.05353 4.33836 -27.3997 -173.422 27.4187 1.43208 15.8651 -1.08804 -12.2332 174.337 -179.782 -6.67742 -174.757 25.464 1.07632 14.761 1.79147 19.6584 174.143 -37.98 -3.06839 178.687 -57.9136 -1.31706 -1.91191 26.5433 -5.40222 179.79 149.809 -5.20698 177.327 -46.2808 -1.12439 -1.66871 8.04578 18.696 174.73 
